<mxfile host="app.diagrams.net" modified="2024-04-26T06:57:04.316Z" agent="Mozilla/5.0 (Windows NT 10.0; Win64; x64) AppleWebKit/537.36 (KHTML, like Gecko) Chrome/124.0.0.0 Safari/537.36" etag="p3fTENr3pVDlP8fgdsSa" version="24.3.0" type="github">
  <diagram id="C5RBs43oDa-KdzZeNtuy" name="Page-1">
    <mxGraphModel dx="-689" dy="485" grid="1" gridSize="10" guides="1" tooltips="1" connect="1" arrows="1" fold="1" page="1" pageScale="1" pageWidth="827" pageHeight="1169" math="0" shadow="0">
      <root>
        <mxCell id="WIyWlLk6GJQsqaUBKTNV-0" />
        <mxCell id="WIyWlLk6GJQsqaUBKTNV-1" parent="WIyWlLk6GJQsqaUBKTNV-0" />
        <mxCell id="WCqFs-Lxz6n811bPiyBm-0" value="Learning Cuda" style="swimlane;whiteSpace=wrap;html=1;" vertex="1" parent="WIyWlLk6GJQsqaUBKTNV-1">
          <mxGeometry x="2088" y="1710" width="320" height="100" as="geometry" />
        </mxCell>
        <mxCell id="WCqFs-Lxz6n811bPiyBm-3" value="&lt;ol&gt;&lt;li style=&quot;text-align: left;&quot;&gt;&lt;span style=&quot;background-color: initial;&quot;&gt;&lt;font color=&quot;#66ff66&quot;&gt;CUDA by example&lt;/font&gt;&lt;/span&gt;&lt;/li&gt;&lt;li style=&quot;text-align: left;&quot;&gt;&lt;span style=&quot;background-color: initial;&quot;&gt;Programming Massively Parallel Processors,&lt;/span&gt;&lt;br&gt;&lt;/li&gt;&lt;li style=&quot;text-align: left;&quot;&gt;CUDA Application Design and Development&amp;nbsp;&lt;br&gt;&lt;/li&gt;&lt;li style=&quot;text-align: left;&quot;&gt;CUDA Programming:&amp;nbsp;&lt;br&gt;&lt;/li&gt;&lt;/ol&gt;" style="text;html=1;align=center;verticalAlign=middle;resizable=0;points=[];autosize=1;strokeColor=none;fillColor=none;spacingTop=-7;spacingBottom=-4;" vertex="1" parent="WCqFs-Lxz6n811bPiyBm-0">
          <mxGeometry x="20" y="20" width="300" height="80" as="geometry" />
        </mxCell>
        <mxCell id="WCqFs-Lxz6n811bPiyBm-298" value="&lt;b&gt;&lt;font color=&quot;#99ccff&quot;&gt;&lt;i&gt;SYNC&lt;/i&gt;&lt;/font&gt;&lt;/b&gt;" style="text;html=1;align=center;verticalAlign=middle;resizable=0;points=[];autosize=1;strokeColor=none;fillColor=none;" vertex="1" parent="WCqFs-Lxz6n811bPiyBm-0">
          <mxGeometry x="-8" y="45" width="60" height="30" as="geometry" />
        </mxCell>
        <mxCell id="WCqFs-Lxz6n811bPiyBm-224" value="Probability" style="swimlane;whiteSpace=wrap;html=1;" vertex="1" parent="WIyWlLk6GJQsqaUBKTNV-1">
          <mxGeometry x="1840" y="680" width="140" height="140" as="geometry" />
        </mxCell>
        <mxCell id="WCqFs-Lxz6n811bPiyBm-225" value="&lt;a href=&quot;https://ocw.mit.edu/courses/6-041-probabilistic-systems-analysis-and-applied-probability-fall-2010/video_galleries/video-lectures/&quot;&gt;1. Applied prob&lt;br&gt;- MIT Tsitsiklis&lt;/a&gt;" style="text;html=1;align=center;verticalAlign=middle;resizable=0;points=[];autosize=1;strokeColor=none;fillColor=none;" vertex="1" parent="WCqFs-Lxz6n811bPiyBm-224">
          <mxGeometry x="20" y="25" width="100" height="40" as="geometry" />
        </mxCell>
        <mxCell id="WCqFs-Lxz6n811bPiyBm-226" value="&lt;ol&gt;&lt;li&gt;&lt;font style=&quot;font-size: 8px;&quot; color=&quot;#000033&quot;&gt;Probablistic robotics&lt;br&gt;-thrun S et.al&lt;br&gt;&lt;/font&gt;&lt;/li&gt;&lt;li&gt;&lt;font style=&quot;font-size: 8px;&quot; color=&quot;#000033&quot;&gt;Deep learning &lt;br&gt;- Ian goodfellow&lt;br&gt;&lt;/font&gt;&lt;/li&gt;&lt;/ol&gt;" style="text;html=1;align=center;verticalAlign=middle;resizable=0;points=[];autosize=1;strokeColor=none;fillColor=none;spacingTop=-7;spacingBottom=-4;" vertex="1" parent="WCqFs-Lxz6n811bPiyBm-224">
          <mxGeometry x="10" y="65" width="130" height="80" as="geometry" />
        </mxCell>
        <mxCell id="WCqFs-Lxz6n811bPiyBm-227" value="&lt;a href=&quot;https://www.cs.cmu.edu/~kaess/pub/Dellaert17fnt.pdf&quot;&gt;Factor Graphs for robot vision&lt;/a&gt;" style="rounded=0;whiteSpace=wrap;html=1;" vertex="1" parent="WIyWlLk6GJQsqaUBKTNV-1">
          <mxGeometry x="2140" y="625" width="120" height="60" as="geometry" />
        </mxCell>
        <mxCell id="WCqFs-Lxz6n811bPiyBm-228" value="&lt;a href=&quot;https://arxiv.org/pdf/1812.01537.pdf&quot;&gt;A Micro Lie Theory for State Estimation in Robotics&lt;/a&gt;" style="rounded=0;whiteSpace=wrap;html=1;" vertex="1" parent="WIyWlLk6GJQsqaUBKTNV-1">
          <mxGeometry x="2140" y="393" width="120" height="60" as="geometry" />
        </mxCell>
        <mxCell id="WCqFs-Lxz6n811bPiyBm-229" value="Linear Algebra" style="swimlane;whiteSpace=wrap;html=1;" vertex="1" parent="WIyWlLk6GJQsqaUBKTNV-1">
          <mxGeometry x="1830" y="380" width="160" height="160" as="geometry" />
        </mxCell>
        <mxCell id="WCqFs-Lxz6n811bPiyBm-230" value="1. &lt;a href=&quot;https://ocw.mit.edu/courses/18-06sc-linear-algebra-fall-2011/&quot;&gt;LA MIT gilbert Strang&lt;/a&gt;" style="text;html=1;align=center;verticalAlign=middle;resizable=0;points=[];autosize=1;strokeColor=none;fillColor=none;" vertex="1" parent="WCqFs-Lxz6n811bPiyBm-229">
          <mxGeometry x="2.5" y="30" width="150" height="30" as="geometry" />
        </mxCell>
        <mxCell id="WCqFs-Lxz6n811bPiyBm-231" value="&lt;font color=&quot;#26ff43&quot;&gt;Async&lt;/font&gt;:" style="text;html=1;align=center;verticalAlign=middle;resizable=0;points=[];autosize=1;strokeColor=none;fillColor=none;" vertex="1" parent="WCqFs-Lxz6n811bPiyBm-229">
          <mxGeometry x="-10" y="90" width="60" height="30" as="geometry" />
        </mxCell>
        <mxCell id="WCqFs-Lxz6n811bPiyBm-232" value="&lt;ol&gt;&lt;li&gt;&lt;font style=&quot;font-size: 8px;&quot; color=&quot;#000033&quot;&gt;Lin alg and opt for ML&lt;br&gt;- charu c agg&lt;/font&gt;&lt;/li&gt;&lt;li&gt;&lt;font style=&quot;font-size: 8px;&quot; color=&quot;#000033&quot;&gt;Deep learning &lt;br&gt;- Ian goodfellow&lt;br&gt;&lt;/font&gt;&lt;/li&gt;&lt;/ol&gt;" style="text;html=1;align=center;verticalAlign=middle;resizable=0;points=[];autosize=1;strokeColor=none;fillColor=none;spacingTop=-7;spacingBottom=-4;" vertex="1" parent="WCqFs-Lxz6n811bPiyBm-229">
          <mxGeometry x="5" y="85" width="140" height="80" as="geometry" />
        </mxCell>
        <mxCell id="WCqFs-Lxz6n811bPiyBm-233" value="&lt;a href=&quot;https://ocw.mit.edu/courses/18-065-matrix-methods-in-data-analysis-signal-processing-and-machine-learning-spring-2018/&quot;&gt;2. &lt;font style=&quot;font-size: 10px;&quot;&gt;Mat for engg &lt;br&gt;MIT gilbert Strang&lt;/font&gt;&lt;/a&gt;" style="text;html=1;align=center;verticalAlign=middle;resizable=0;points=[];autosize=1;strokeColor=none;fillColor=none;" vertex="1" parent="WCqFs-Lxz6n811bPiyBm-229">
          <mxGeometry x="27.5" y="50" width="100" height="40" as="geometry" />
        </mxCell>
        <mxCell id="WCqFs-Lxz6n811bPiyBm-234" value="" style="shape=curlyBracket;whiteSpace=wrap;html=1;rounded=1;flipH=1;labelPosition=right;verticalLabelPosition=middle;align=left;verticalAlign=middle;size=0.5;" vertex="1" parent="WIyWlLk6GJQsqaUBKTNV-1">
          <mxGeometry x="2260" y="625" width="20" height="100" as="geometry" />
        </mxCell>
        <mxCell id="WCqFs-Lxz6n811bPiyBm-235" value="&lt;b&gt;&lt;font color=&quot;#99ccff&quot;&gt;&lt;i&gt;SYNC&lt;/i&gt;&lt;/font&gt;&lt;/b&gt;" style="text;html=1;align=center;verticalAlign=middle;resizable=0;points=[];autosize=1;strokeColor=none;fillColor=none;" vertex="1" parent="WIyWlLk6GJQsqaUBKTNV-1">
          <mxGeometry x="2270" y="660" width="60" height="30" as="geometry" />
        </mxCell>
        <mxCell id="WCqFs-Lxz6n811bPiyBm-236" value="ROBOTICS THEORY" style="swimlane;whiteSpace=wrap;html=1;" vertex="1" parent="WIyWlLk6GJQsqaUBKTNV-1">
          <mxGeometry x="2195" y="1360" width="150" height="100" as="geometry" />
        </mxCell>
        <mxCell id="WCqFs-Lxz6n811bPiyBm-237" value="&lt;font color=&quot;#26ff43&quot;&gt;Async&lt;/font&gt;:" style="text;html=1;align=center;verticalAlign=middle;resizable=0;points=[];autosize=1;strokeColor=none;fillColor=none;" vertex="1" parent="WCqFs-Lxz6n811bPiyBm-236">
          <mxGeometry x="40" y="20" width="60" height="30" as="geometry" />
        </mxCell>
        <mxCell id="WCqFs-Lxz6n811bPiyBm-238" value="" style="swimlane;startSize=0;" vertex="1" parent="WIyWlLk6GJQsqaUBKTNV-1">
          <mxGeometry x="2080" y="1350" width="280" height="120" as="geometry" />
        </mxCell>
        <mxCell id="WCqFs-Lxz6n811bPiyBm-239" value="&lt;ol style=&quot;font-size: 8px;&quot;&gt;&lt;li&gt;&lt;font color=&quot;#000033&quot; style=&quot;font-size: 8px;&quot;&gt;&lt;a href=&quot;https://docs.ufpr.br/~danielsantos/ProbabilisticRobotics.pdf&quot;&gt;Probablistic Robotics- Thrun et.al&lt;/a&gt;&lt;/font&gt;&lt;br&gt;&lt;/li&gt;&lt;li&gt;&lt;font style=&quot;font-size: 8px;&quot; color=&quot;#000033&quot;&gt;&lt;a href=&quot;https://www.ucg.ac.me/skladiste/blog_13268/objava_56689/fajlovi/Introduction%20to%20Autonomous%20Mobile%20Robots%20book.pdf&quot;&gt;Intro to AMR - Siegwart et.al&lt;/a&gt;&lt;/font&gt;&lt;/li&gt;&lt;li&gt;&lt;a href=&quot;http://www.r-5.org/files/books/computers/algo-list/image-processing/vision/Richard_Hartley_Andrew_Zisserman-Multiple_View_Geometry_in_Computer_Vision-EN.pdf&quot;&gt;&lt;font style=&quot;font-size: 8px;&quot;&gt;Multi-View Geometry- Hartlyet.al&lt;br&gt;&lt;/font&gt;&lt;/a&gt;&lt;font color=&quot;#b5739d&quot;&gt;&lt;/font&gt;&lt;/li&gt;&lt;/ol&gt;" style="text;html=1;align=center;verticalAlign=middle;resizable=0;points=[];autosize=1;strokeColor=none;fillColor=none;spacingTop=-7;spacingBottom=-4;" vertex="1" parent="WCqFs-Lxz6n811bPiyBm-238">
          <mxGeometry x="80" y="50" width="180" height="40" as="geometry" />
        </mxCell>
        <mxCell id="WCqFs-Lxz6n811bPiyBm-240" value="&lt;font color=&quot;#f70000&quot;&gt;&lt;b&gt;LEARNING &lt;br&gt;THEORY&lt;br&gt;&lt;/b&gt;&lt;/font&gt;" style="text;html=1;align=center;verticalAlign=middle;resizable=0;points=[];autosize=1;strokeColor=none;fillColor=none;" vertex="1" parent="WIyWlLk6GJQsqaUBKTNV-1">
          <mxGeometry x="2090" y="1383" width="80" height="40" as="geometry" />
        </mxCell>
        <mxCell id="WCqFs-Lxz6n811bPiyBm-242" value="" style="shape=curlyBracket;whiteSpace=wrap;html=1;rounded=1;flipH=1;labelPosition=right;verticalLabelPosition=middle;align=left;verticalAlign=middle;size=0.5;" vertex="1" parent="WIyWlLk6GJQsqaUBKTNV-1">
          <mxGeometry x="2260" y="393" width="20" height="120" as="geometry" />
        </mxCell>
        <mxCell id="WCqFs-Lxz6n811bPiyBm-243" value="&lt;b&gt;&lt;font color=&quot;#99ccff&quot;&gt;&lt;i&gt;SYNC&lt;/i&gt;&lt;/font&gt;&lt;/b&gt;" style="text;html=1;align=center;verticalAlign=middle;resizable=0;points=[];autosize=1;strokeColor=none;fillColor=none;" vertex="1" parent="WIyWlLk6GJQsqaUBKTNV-1">
          <mxGeometry x="2270" y="428" width="60" height="30" as="geometry" />
        </mxCell>
        <mxCell id="WCqFs-Lxz6n811bPiyBm-244" value="&lt;font color=&quot;#f70000&quot;&gt;&lt;b&gt;LEARNING ROS&lt;br&gt;&lt;/b&gt;&lt;/font&gt;" style="rounded=0;whiteSpace=wrap;html=1;" vertex="1" parent="WIyWlLk6GJQsqaUBKTNV-1">
          <mxGeometry x="2165" y="493" width="95" height="20" as="geometry" />
        </mxCell>
        <mxCell id="WCqFs-Lxz6n811bPiyBm-245" value="&lt;b&gt;CARLA&lt;/b&gt;" style="swimlane;whiteSpace=wrap;html=1;" vertex="1" parent="WIyWlLk6GJQsqaUBKTNV-1">
          <mxGeometry x="2200" y="1170" width="145" height="150" as="geometry" />
        </mxCell>
        <mxCell id="WCqFs-Lxz6n811bPiyBm-246" value="&lt;font color=&quot;#26ff43&quot;&gt;Async&lt;/font&gt;:" style="text;html=1;align=center;verticalAlign=middle;resizable=0;points=[];autosize=1;strokeColor=none;fillColor=none;" vertex="1" parent="WCqFs-Lxz6n811bPiyBm-245">
          <mxGeometry x="40" y="70" width="60" height="30" as="geometry" />
        </mxCell>
        <mxCell id="WCqFs-Lxz6n811bPiyBm-247" value="Build Lidar+Camera&lt;br&gt;based VSLAM &lt;br&gt;in a custom world" style="text;html=1;align=center;verticalAlign=middle;resizable=0;points=[];autosize=1;strokeColor=none;fillColor=none;" vertex="1" parent="WCqFs-Lxz6n811bPiyBm-245">
          <mxGeometry x="5" y="20" width="130" height="60" as="geometry" />
        </mxCell>
        <mxCell id="WCqFs-Lxz6n811bPiyBm-248" value="" style="swimlane;startSize=0;" vertex="1" parent="WIyWlLk6GJQsqaUBKTNV-1">
          <mxGeometry x="2080" y="1160" width="280" height="170" as="geometry" />
        </mxCell>
        <mxCell id="WCqFs-Lxz6n811bPiyBm-249" value="&lt;font color=&quot;#f70000&quot;&gt;&lt;b&gt;LEARNING CARLA&lt;/b&gt;&lt;/font&gt;" style="text;html=1;align=center;verticalAlign=middle;resizable=0;points=[];autosize=1;strokeColor=none;fillColor=none;" vertex="1" parent="WCqFs-Lxz6n811bPiyBm-248">
          <mxGeometry y="38" width="120" height="30" as="geometry" />
        </mxCell>
        <mxCell id="WCqFs-Lxz6n811bPiyBm-250" value="&lt;ol style=&quot;font-size: 11px;&quot;&gt;&lt;li style=&quot;font-size: 10px;&quot;&gt;&lt;div align=&quot;left&quot;&gt;&lt;font style=&quot;font-size: 10px;&quot;&gt;read through docs&lt;/font&gt;&lt;/div&gt;&lt;/li&gt;&lt;li style=&quot;font-size: 10px;&quot;&gt;&lt;div align=&quot;left&quot;&gt;&lt;font style=&quot;font-size: 10px;&quot;&gt;&amp;nbsp;&amp;lt;book / course online&amp;gt;&lt;/font&gt;&lt;/div&gt;&lt;/li&gt;&lt;/ol&gt;" style="text;html=1;align=center;verticalAlign=middle;resizable=0;points=[];autosize=1;strokeColor=none;fillColor=none;spacingTop=-7;spacingBottom=-4;" vertex="1" parent="WCqFs-Lxz6n811bPiyBm-248">
          <mxGeometry x="95" y="105" width="170" height="40" as="geometry" />
        </mxCell>
        <mxCell id="WCqFs-Lxz6n811bPiyBm-251" value="" style="swimlane;startSize=0;" vertex="1" parent="WIyWlLk6GJQsqaUBKTNV-1">
          <mxGeometry x="2450" y="1320" width="155" height="150" as="geometry" />
        </mxCell>
        <mxCell id="WCqFs-Lxz6n811bPiyBm-252" value="&lt;font color=&quot;#f7f7f7&quot;&gt;&lt;b&gt;CARLA PROJECT&lt;br&gt;&lt;/b&gt;&lt;/font&gt;" style="whiteSpace=wrap;html=1;fillColor=#f8cecc;strokeColor=#b85450;" vertex="1" parent="WCqFs-Lxz6n811bPiyBm-251">
          <mxGeometry x="10" y="10" width="120" height="27" as="geometry" />
        </mxCell>
        <mxCell id="WCqFs-Lxz6n811bPiyBm-253" value="Build Lidar+Camera&lt;br&gt;based VSLAM &lt;br&gt;in a custom world" style="text;html=1;align=center;verticalAlign=middle;resizable=0;points=[];autosize=1;strokeColor=none;fillColor=none;" vertex="1" parent="WCqFs-Lxz6n811bPiyBm-251">
          <mxGeometry x="5" y="40" width="130" height="60" as="geometry" />
        </mxCell>
        <mxCell id="WCqFs-Lxz6n811bPiyBm-254" value="&lt;font color=&quot;#666600&quot;&gt;understanding Visual slam &lt;br&gt;thoroughly&lt;br&gt;&lt;/font&gt;" style="text;html=1;align=center;verticalAlign=middle;resizable=0;points=[];autosize=1;strokeColor=none;fillColor=none;" vertex="1" parent="WCqFs-Lxz6n811bPiyBm-251">
          <mxGeometry x="-7.5" y="100" width="170" height="40" as="geometry" />
        </mxCell>
        <mxCell id="WCqFs-Lxz6n811bPiyBm-255" value="" style="swimlane;startSize=0;" vertex="1" parent="WIyWlLk6GJQsqaUBKTNV-1">
          <mxGeometry x="2440" y="1510" width="180" height="150" as="geometry" />
        </mxCell>
        <mxCell id="WCqFs-Lxz6n811bPiyBm-256" value="&lt;font color=&quot;#f7f7f7&quot;&gt;&lt;b&gt;DRONE VSLAM PROJECT&lt;br&gt;&lt;/b&gt;&lt;/font&gt;" style="whiteSpace=wrap;html=1;fillColor=#f8cecc;strokeColor=#b85450;" vertex="1" parent="WCqFs-Lxz6n811bPiyBm-255">
          <mxGeometry x="10" y="10" width="160" height="30" as="geometry" />
        </mxCell>
        <mxCell id="WCqFs-Lxz6n811bPiyBm-257" value="Drone that does visual slam&lt;br&gt;in a custom world&lt;br&gt;(simulation)" style="text;html=1;align=center;verticalAlign=middle;resizable=0;points=[];autosize=1;strokeColor=none;fillColor=none;" vertex="1" parent="WCqFs-Lxz6n811bPiyBm-255">
          <mxGeometry y="40" width="180" height="60" as="geometry" />
        </mxCell>
        <mxCell id="WCqFs-Lxz6n811bPiyBm-258" value="&lt;font color=&quot;#666600&quot;&gt;implementing a low latency&lt;br&gt;VSLAM pipeline&lt;br&gt;&lt;/font&gt;" style="text;html=1;align=center;verticalAlign=middle;resizable=0;points=[];autosize=1;strokeColor=none;fillColor=none;" vertex="1" parent="WCqFs-Lxz6n811bPiyBm-255">
          <mxGeometry x="5" y="100" width="170" height="40" as="geometry" />
        </mxCell>
        <mxCell id="WCqFs-Lxz6n811bPiyBm-259" value="ECEE 5550 MOBILE ROBOTICS" style="rounded=0;whiteSpace=wrap;html=1;" vertex="1" parent="WIyWlLk6GJQsqaUBKTNV-1">
          <mxGeometry x="2380" y="480" width="120" height="60" as="geometry" />
        </mxCell>
        <mxCell id="WCqFs-Lxz6n811bPiyBm-260" value="" style="shape=curlyBracket;whiteSpace=wrap;html=1;rounded=1;flipH=1;labelPosition=right;verticalLabelPosition=middle;align=left;verticalAlign=middle;size=0.5;" vertex="1" parent="WIyWlLk6GJQsqaUBKTNV-1">
          <mxGeometry x="2500" y="480" width="20" height="130" as="geometry" />
        </mxCell>
        <mxCell id="WCqFs-Lxz6n811bPiyBm-261" value="&lt;b&gt;&lt;font color=&quot;#99ccff&quot;&gt;&lt;i&gt;SYNC&lt;/i&gt;&lt;/font&gt;&lt;/b&gt;" style="text;html=1;align=center;verticalAlign=middle;resizable=0;points=[];autosize=1;strokeColor=none;fillColor=none;" vertex="1" parent="WIyWlLk6GJQsqaUBKTNV-1">
          <mxGeometry x="2510" y="530" width="60" height="30" as="geometry" />
        </mxCell>
        <mxCell id="WCqFs-Lxz6n811bPiyBm-262" value="" style="shape=curlyBracket;whiteSpace=wrap;html=1;rounded=1;flipH=1;labelPosition=right;verticalLabelPosition=middle;align=left;verticalAlign=middle;size=0.5;" vertex="1" parent="WIyWlLk6GJQsqaUBKTNV-1">
          <mxGeometry x="2540" y="690" width="20" height="65" as="geometry" />
        </mxCell>
        <mxCell id="WCqFs-Lxz6n811bPiyBm-263" value="&lt;b&gt;&lt;font color=&quot;#99ccff&quot;&gt;&lt;i&gt;SYNC&lt;/i&gt;&lt;/font&gt;&lt;/b&gt;" style="text;html=1;align=center;verticalAlign=middle;resizable=0;points=[];autosize=1;strokeColor=none;fillColor=none;" vertex="1" parent="WIyWlLk6GJQsqaUBKTNV-1">
          <mxGeometry x="2550" y="702.5" width="60" height="30" as="geometry" />
        </mxCell>
        <mxCell id="WCqFs-Lxz6n811bPiyBm-264" value="&lt;font color=&quot;#f7f7f7&quot;&gt;&lt;b&gt;CARLA PROJECT&lt;br&gt;&lt;/b&gt;&lt;/font&gt;" style="whiteSpace=wrap;html=1;fillColor=#f8cecc;strokeColor=#b85450;" vertex="1" parent="WIyWlLk6GJQsqaUBKTNV-1">
          <mxGeometry x="2380" y="583" width="120" height="27" as="geometry" />
        </mxCell>
        <mxCell id="WCqFs-Lxz6n811bPiyBm-265" value="&lt;font color=&quot;#26ff43&quot;&gt;Async&lt;/font&gt;:" style="text;html=1;align=center;verticalAlign=middle;resizable=0;points=[];autosize=1;strokeColor=none;fillColor=none;" vertex="1" parent="WIyWlLk6GJQsqaUBKTNV-1">
          <mxGeometry x="1830" y="745" width="60" height="30" as="geometry" />
        </mxCell>
        <mxCell id="WCqFs-Lxz6n811bPiyBm-266" value="" style="swimlane;startSize=0;" vertex="1" parent="WIyWlLk6GJQsqaUBKTNV-1">
          <mxGeometry x="2440" y="1190" width="170" height="90" as="geometry" />
        </mxCell>
        <mxCell id="WCqFs-Lxz6n811bPiyBm-267" value="&lt;font color=&quot;#f7f7f7&quot;&gt;&lt;b&gt;deep learning project&lt;br&gt;&lt;/b&gt;&lt;/font&gt;" style="whiteSpace=wrap;html=1;fillColor=#f8cecc;strokeColor=#b85450;" vertex="1" parent="WCqFs-Lxz6n811bPiyBm-266">
          <mxGeometry x="20" y="10" width="130" height="30" as="geometry" />
        </mxCell>
        <mxCell id="WCqFs-Lxz6n811bPiyBm-268" value="OBJECT RECOGNITION &lt;br&gt;USING SAM EMBEDDINGS" style="text;html=1;align=center;verticalAlign=middle;resizable=0;points=[];autosize=1;strokeColor=none;fillColor=none;" vertex="1" parent="WCqFs-Lxz6n811bPiyBm-266">
          <mxGeometry y="50" width="170" height="40" as="geometry" />
        </mxCell>
        <mxCell id="WCqFs-Lxz6n811bPiyBm-269" value="" style="shape=curlyBracket;whiteSpace=wrap;html=1;rounded=1;flipH=1;labelPosition=right;verticalLabelPosition=middle;align=left;verticalAlign=middle;size=0.5;" vertex="1" parent="WIyWlLk6GJQsqaUBKTNV-1">
          <mxGeometry x="1995" y="380" width="20" height="200" as="geometry" />
        </mxCell>
        <mxCell id="WCqFs-Lxz6n811bPiyBm-270" value="&lt;b&gt;&lt;font color=&quot;#99ccff&quot;&gt;&lt;i&gt;SYNC&lt;/i&gt;&lt;/font&gt;&lt;/b&gt;" style="text;html=1;align=center;verticalAlign=middle;resizable=0;points=[];autosize=1;strokeColor=none;fillColor=none;" vertex="1" parent="WIyWlLk6GJQsqaUBKTNV-1">
          <mxGeometry x="2025" y="465" width="60" height="30" as="geometry" />
        </mxCell>
        <mxCell id="WCqFs-Lxz6n811bPiyBm-271" value="" style="shape=curlyBracket;whiteSpace=wrap;html=1;rounded=1;flipH=1;labelPosition=right;verticalLabelPosition=middle;align=left;verticalAlign=middle;size=0.5;" vertex="1" parent="WIyWlLk6GJQsqaUBKTNV-1">
          <mxGeometry x="1980" y="680" width="20" height="180" as="geometry" />
        </mxCell>
        <mxCell id="WCqFs-Lxz6n811bPiyBm-272" value="&lt;b&gt;&lt;font color=&quot;#99ccff&quot;&gt;&lt;i&gt;SYNC&lt;/i&gt;&lt;/font&gt;&lt;/b&gt;" style="text;html=1;align=center;verticalAlign=middle;resizable=0;points=[];autosize=1;strokeColor=none;fillColor=none;" vertex="1" parent="WIyWlLk6GJQsqaUBKTNV-1">
          <mxGeometry x="1995" y="755" width="60" height="30" as="geometry" />
        </mxCell>
        <mxCell id="WCqFs-Lxz6n811bPiyBm-273" value="&lt;font color=&quot;#f7f7f7&quot;&gt;&lt;b&gt;LEARNING ROS&lt;/b&gt;&lt;/font&gt;" style="whiteSpace=wrap;html=1;fillColor=#f8cecc;strokeColor=#b85450;" vertex="1" parent="WIyWlLk6GJQsqaUBKTNV-1">
          <mxGeometry x="1860" y="550" width="130" height="30" as="geometry" />
        </mxCell>
        <mxCell id="WCqFs-Lxz6n811bPiyBm-275" value="&lt;font color=&quot;#f7f7f7&quot;&gt;&lt;b&gt;DRONE VSLAM PROJECT&lt;br&gt;&lt;/b&gt;&lt;/font&gt;" style="whiteSpace=wrap;html=1;fillColor=#f8cecc;strokeColor=#b85450;" vertex="1" parent="WIyWlLk6GJQsqaUBKTNV-1">
          <mxGeometry x="2380" y="690" width="160" height="30" as="geometry" />
        </mxCell>
        <mxCell id="WCqFs-Lxz6n811bPiyBm-276" value="ROS (practical stuff)" style="swimlane;whiteSpace=wrap;html=1;" vertex="1" parent="WIyWlLk6GJQsqaUBKTNV-1">
          <mxGeometry x="2215" y="1510" width="145" height="150" as="geometry" />
        </mxCell>
        <mxCell id="WCqFs-Lxz6n811bPiyBm-277" value="&lt;font color=&quot;#26ff43&quot;&gt;Async&lt;/font&gt;:" style="text;html=1;align=center;verticalAlign=middle;resizable=0;points=[];autosize=1;strokeColor=none;fillColor=none;" vertex="1" parent="WCqFs-Lxz6n811bPiyBm-276">
          <mxGeometry x="40" y="70" width="60" height="30" as="geometry" />
        </mxCell>
        <mxCell id="WCqFs-Lxz6n811bPiyBm-278" value="&amp;lt;some complete &lt;br&gt;project tutorial&amp;gt;" style="text;html=1;align=center;verticalAlign=middle;resizable=0;points=[];autosize=1;strokeColor=none;fillColor=none;" vertex="1" parent="WCqFs-Lxz6n811bPiyBm-276">
          <mxGeometry x="10" y="30" width="120" height="40" as="geometry" />
        </mxCell>
        <mxCell id="WCqFs-Lxz6n811bPiyBm-279" value="&lt;ol&gt;&lt;li&gt;&lt;font color=&quot;#000033&quot; style=&quot;font-size: 8px;&quot;&gt;&lt;a href=&quot;https://jokane.net/agitr/&quot;&gt;A gentle intro to ros in C++&lt;/a&gt;&lt;/font&gt;&lt;/li&gt;&lt;li&gt;&lt;font color=&quot;#000033&quot; style=&quot;font-size: 8px;&quot;&gt;Programming Robots with ROS &lt;br&gt;- Morgan Quigley&lt;br&gt;&lt;/font&gt;&lt;/li&gt;&lt;/ol&gt;" style="text;html=1;align=center;verticalAlign=middle;resizable=0;points=[];autosize=1;strokeColor=none;fillColor=none;spacingTop=-7;spacingBottom=-4;" vertex="1" parent="WCqFs-Lxz6n811bPiyBm-276">
          <mxGeometry x="-35" y="80" width="180" height="70" as="geometry" />
        </mxCell>
        <mxCell id="WCqFs-Lxz6n811bPiyBm-280" value="" style="swimlane;startSize=0;" vertex="1" parent="WIyWlLk6GJQsqaUBKTNV-1">
          <mxGeometry x="2095" y="1500" width="280" height="170" as="geometry" />
        </mxCell>
        <mxCell id="WCqFs-Lxz6n811bPiyBm-281" value="&lt;font color=&quot;#f70000&quot;&gt;&lt;b&gt;LEARNING ROS&lt;br&gt;&lt;/b&gt;&lt;/font&gt;" style="text;html=1;align=center;verticalAlign=middle;resizable=0;points=[];autosize=1;strokeColor=none;fillColor=none;" vertex="1" parent="WIyWlLk6GJQsqaUBKTNV-1">
          <mxGeometry x="2090" y="1538" width="110" height="30" as="geometry" />
        </mxCell>
        <mxCell id="WCqFs-Lxz6n811bPiyBm-282" value="&lt;b style=&quot;color: rgb(247, 0, 0);&quot;&gt;LEARNING ROS&lt;/b&gt;&lt;font color=&quot;#f70000&quot;&gt;&lt;b&gt;&lt;br&gt;&lt;/b&gt;&lt;/font&gt;" style="rounded=0;whiteSpace=wrap;html=1;" vertex="1" parent="WIyWlLk6GJQsqaUBKTNV-1">
          <mxGeometry x="2140" y="698" width="120" height="22" as="geometry" />
        </mxCell>
        <mxCell id="WCqFs-Lxz6n811bPiyBm-283" value="&lt;font color=&quot;#f70000&quot;&gt;&lt;b&gt;LEARNING THEORY&lt;br&gt;&lt;/b&gt;&lt;/font&gt;" style="rounded=0;whiteSpace=wrap;html=1;" vertex="1" parent="WIyWlLk6GJQsqaUBKTNV-1">
          <mxGeometry x="2420" y="730" width="120" height="25" as="geometry" />
        </mxCell>
        <mxCell id="WCqFs-Lxz6n811bPiyBm-284" value="&lt;font color=&quot;#f70000&quot;&gt;&lt;b&gt;LEARNING THEORY&lt;br&gt;&lt;/b&gt;&lt;/font&gt;" style="rounded=0;whiteSpace=wrap;html=1;" vertex="1" parent="WIyWlLk6GJQsqaUBKTNV-1">
          <mxGeometry x="2140" y="460" width="122.5" height="23" as="geometry" />
        </mxCell>
        <mxCell id="WCqFs-Lxz6n811bPiyBm-285" value="&lt;font color=&quot;#f70000&quot;&gt;&lt;b&gt;LEARNING THEORY&lt;br&gt;&lt;/b&gt;&lt;/font&gt;" style="rounded=0;whiteSpace=wrap;html=1;" vertex="1" parent="WIyWlLk6GJQsqaUBKTNV-1">
          <mxGeometry x="2380" y="547" width="120" height="23" as="geometry" />
        </mxCell>
        <mxCell id="WCqFs-Lxz6n811bPiyBm-286" value="" style="shape=flexArrow;endArrow=classic;html=1;rounded=0;fillColor=#d5e8d4;strokeColor=#82b366;entryX=0.5;entryY=0;entryDx=0;entryDy=0;" edge="1" parent="WIyWlLk6GJQsqaUBKTNV-1" target="WCqFs-Lxz6n811bPiyBm-224">
          <mxGeometry width="50" height="50" relative="1" as="geometry">
            <mxPoint x="1910" y="582.5" as="sourcePoint" />
            <mxPoint x="1910" y="670" as="targetPoint" />
          </mxGeometry>
        </mxCell>
        <mxCell id="WCqFs-Lxz6n811bPiyBm-287" value="" style="shape=flexArrow;endArrow=classic;html=1;rounded=0;fillColor=#d5e8d4;strokeColor=#82b366;" edge="1" parent="WIyWlLk6GJQsqaUBKTNV-1">
          <mxGeometry width="50" height="50" relative="1" as="geometry">
            <mxPoint x="2030" y="835" as="sourcePoint" />
            <mxPoint x="2200" y="790" as="targetPoint" />
            <Array as="points">
              <mxPoint x="2200" y="835" />
            </Array>
          </mxGeometry>
        </mxCell>
        <mxCell id="WCqFs-Lxz6n811bPiyBm-288" value="" style="shape=flexArrow;endArrow=classic;html=1;rounded=0;fillColor=#d5e8d4;strokeColor=#82b366;entryX=0.399;entryY=0.968;entryDx=0;entryDy=0;entryPerimeter=0;exitX=0.514;exitY=-0.089;exitDx=0;exitDy=0;exitPerimeter=0;" edge="1" parent="WIyWlLk6GJQsqaUBKTNV-1" source="WCqFs-Lxz6n811bPiyBm-227">
          <mxGeometry width="50" height="50" relative="1" as="geometry">
            <mxPoint x="2202.2" y="590.64" as="sourcePoint" />
            <mxPoint x="2202.605" y="512.9999999999999" as="targetPoint" />
          </mxGeometry>
        </mxCell>
        <mxCell id="WCqFs-Lxz6n811bPiyBm-289" value="" style="shape=flexArrow;endArrow=classic;html=1;rounded=0;fillColor=#d5e8d4;strokeColor=#82b366;entryX=0.5;entryY=0;entryDx=0;entryDy=0;" edge="1" parent="WIyWlLk6GJQsqaUBKTNV-1" target="WCqFs-Lxz6n811bPiyBm-259">
          <mxGeometry width="50" height="50" relative="1" as="geometry">
            <mxPoint x="2292.5" y="400" as="sourcePoint" />
            <mxPoint x="2492.5" y="510" as="targetPoint" />
            <Array as="points">
              <mxPoint x="2440" y="400" />
            </Array>
          </mxGeometry>
        </mxCell>
        <mxCell id="WCqFs-Lxz6n811bPiyBm-290" value="" style="shape=flexArrow;endArrow=classic;html=1;rounded=0;fillColor=#d5e8d4;strokeColor=#82b366;entryX=0.5;entryY=0;entryDx=0;entryDy=0;exitX=0.5;exitY=1;exitDx=0;exitDy=0;" edge="1" parent="WIyWlLk6GJQsqaUBKTNV-1" source="WCqFs-Lxz6n811bPiyBm-264">
          <mxGeometry width="50" height="50" relative="1" as="geometry">
            <mxPoint x="2439.57" y="592.5" as="sourcePoint" />
            <mxPoint x="2439.57" y="690" as="targetPoint" />
          </mxGeometry>
        </mxCell>
        <mxCell id="WCqFs-Lxz6n811bPiyBm-291" value="&lt;font color=&quot;#ff0000&quot;&gt;&lt;b&gt;04/10/2024&lt;/b&gt;&lt;/font&gt;" style="text;html=1;align=center;verticalAlign=middle;whiteSpace=wrap;rounded=0;fillColor=default;" vertex="1" parent="WIyWlLk6GJQsqaUBKTNV-1">
          <mxGeometry x="2030" y="550" width="60" height="30" as="geometry" />
        </mxCell>
        <mxCell id="WCqFs-Lxz6n811bPiyBm-292" value="&lt;font color=&quot;#ff0000&quot;&gt;&lt;b&gt;04/19/2024&lt;/b&gt;&lt;/font&gt;" style="text;html=1;align=center;verticalAlign=middle;whiteSpace=wrap;rounded=0;fillColor=default;" vertex="1" parent="WIyWlLk6GJQsqaUBKTNV-1">
          <mxGeometry x="2000" y="870" width="60" height="30" as="geometry" />
        </mxCell>
        <mxCell id="WCqFs-Lxz6n811bPiyBm-293" value="&lt;font color=&quot;#ff0000&quot;&gt;&lt;b&gt;06/1/2024&lt;/b&gt;&lt;/font&gt;" style="text;html=1;align=center;verticalAlign=middle;whiteSpace=wrap;rounded=0;fillColor=default;" vertex="1" parent="WIyWlLk6GJQsqaUBKTNV-1">
          <mxGeometry x="2510" y="608" width="60" height="30" as="geometry" />
        </mxCell>
        <mxCell id="WCqFs-Lxz6n811bPiyBm-294" value="&lt;font color=&quot;#ff0000&quot;&gt;&lt;b&gt;PARTIAL &lt;br&gt;- 04/1/2024&lt;/b&gt;&lt;/font&gt;" style="text;html=1;align=center;verticalAlign=middle;whiteSpace=wrap;rounded=0;fillColor=default;" vertex="1" parent="WIyWlLk6GJQsqaUBKTNV-1">
          <mxGeometry x="2262.5" y="360" width="80" height="30" as="geometry" />
        </mxCell>
        <mxCell id="WCqFs-Lxz6n811bPiyBm-295" value="&lt;font color=&quot;#ff0000&quot;&gt;&lt;b&gt;03/25/2024&lt;/b&gt;&lt;/font&gt;" style="text;html=1;align=center;verticalAlign=middle;whiteSpace=wrap;rounded=0;fillColor=default;" vertex="1" parent="WIyWlLk6GJQsqaUBKTNV-1">
          <mxGeometry x="2287.5" y="615" width="60" height="30" as="geometry" />
        </mxCell>
        <mxCell id="WCqFs-Lxz6n811bPiyBm-296" value="&lt;font color=&quot;#ff0000&quot;&gt;&lt;b&gt;09/1/2024&lt;/b&gt;&lt;/font&gt;" style="text;html=1;align=center;verticalAlign=middle;whiteSpace=wrap;rounded=0;fillColor=default;" vertex="1" parent="WIyWlLk6GJQsqaUBKTNV-1">
          <mxGeometry x="2550" y="750" width="60" height="30" as="geometry" />
        </mxCell>
        <mxCell id="WCqFs-Lxz6n811bPiyBm-299" value="Optimizing C++" style="swimlane;whiteSpace=wrap;html=1;" vertex="1" parent="WIyWlLk6GJQsqaUBKTNV-1">
          <mxGeometry x="2088" y="1850" width="310" height="100" as="geometry" />
        </mxCell>
        <mxCell id="WCqFs-Lxz6n811bPiyBm-300" value="&lt;ol&gt;&lt;li style=&quot;text-align: left;&quot;&gt;&lt;span style=&quot;background-color: initial;&quot;&gt;CUDA by example&lt;/span&gt;&lt;/li&gt;&lt;li style=&quot;text-align: left;&quot;&gt;&lt;span style=&quot;background-color: initial;&quot;&gt;Programming Massively Parallel Processors,&lt;/span&gt;&lt;br&gt;&lt;/li&gt;&lt;li style=&quot;text-align: left;&quot;&gt;CUDA Application Design and Development&amp;nbsp;&lt;br&gt;&lt;/li&gt;&lt;li style=&quot;text-align: left;&quot;&gt;CUDA Programming:&amp;nbsp;&lt;br&gt;&lt;/li&gt;&lt;/ol&gt;" style="text;html=1;align=center;verticalAlign=middle;resizable=0;points=[];autosize=1;strokeColor=none;fillColor=none;spacingTop=-7;spacingBottom=-4;" vertex="1" parent="WCqFs-Lxz6n811bPiyBm-299">
          <mxGeometry x="20" y="20" width="300" height="80" as="geometry" />
        </mxCell>
        <mxCell id="WCqFs-Lxz6n811bPiyBm-301" value="&lt;b&gt;&lt;font color=&quot;#99ccff&quot;&gt;&lt;i&gt;SYNC&lt;/i&gt;&lt;/font&gt;&lt;/b&gt;" style="text;html=1;align=center;verticalAlign=middle;resizable=0;points=[];autosize=1;strokeColor=none;fillColor=none;" vertex="1" parent="WCqFs-Lxz6n811bPiyBm-299">
          <mxGeometry x="-8" y="45" width="60" height="30" as="geometry" />
        </mxCell>
        <mxCell id="WCqFs-Lxz6n811bPiyBm-302" value="NEURAL PREP" style="swimlane;whiteSpace=wrap;html=1;" vertex="1" parent="WIyWlLk6GJQsqaUBKTNV-1">
          <mxGeometry x="2088" y="1990" width="432" height="470" as="geometry" />
        </mxCell>
        <mxCell id="WCqFs-Lxz6n811bPiyBm-303" value="&lt;div style=&quot;text-align: left;&quot;&gt;1. Factor Graphs&lt;/div&gt;&lt;div style=&quot;text-align: left;&quot;&gt;2. Micro Lie Theory&lt;br&gt;3. boyds_convex_optimization&lt;br&gt;&lt;/div&gt;&lt;div style=&quot;text-align: left;&quot;&gt;4.&amp;nbsp;&lt;/div&gt;" style="text;html=1;align=center;verticalAlign=middle;resizable=0;points=[];autosize=1;strokeColor=none;fillColor=none;spacingTop=-7;spacingBottom=-4;" vertex="1" parent="WCqFs-Lxz6n811bPiyBm-302">
          <mxGeometry x="80" y="30" width="180" height="60" as="geometry" />
        </mxCell>
        <mxCell id="WCqFs-Lxz6n811bPiyBm-304" value="&lt;b&gt;&lt;font color=&quot;#99ccff&quot;&gt;&lt;i&gt;SYNC&lt;/i&gt;&lt;/font&gt;&lt;/b&gt;" style="text;html=1;align=center;verticalAlign=middle;resizable=0;points=[];autosize=1;strokeColor=none;fillColor=none;" vertex="1" parent="WCqFs-Lxz6n811bPiyBm-302">
          <mxGeometry x="-8" y="45" width="60" height="30" as="geometry" />
        </mxCell>
        <mxCell id="WCqFs-Lxz6n811bPiyBm-308" value="&lt;font style=&quot;&quot; color=&quot;#999900&quot;&gt;GOAL&lt;/font&gt;" style="swimlane;whiteSpace=wrap;html=1;" vertex="1" parent="WCqFs-Lxz6n811bPiyBm-302">
          <mxGeometry x="12" y="110" width="410" height="340" as="geometry" />
        </mxCell>
        <mxCell id="WCqFs-Lxz6n811bPiyBm-305" value="&lt;div style=&quot;font-size: 12pt; font-family: Aptos, Aptos_EmbeddedFont, Aptos_MSFontService, Calibri, Helvetica, sans-serif, serif, EmojiFont;&quot;&gt;Papers on certifiable estimation:&lt;/div&gt;&lt;ul style=&quot;list-style-position: initial; list-style-image: initial; margin-top: 0px; margin-bottom: 0px;&quot; data-editing-info=&quot;{&amp;quot;orderedStyleType&amp;quot;:1,&amp;quot;unorderedStyleType&amp;quot;:1}&quot;&gt;&lt;li style=&quot;font-size: 12pt; font-family: Aptos, Aptos_EmbeddedFont, Aptos_MSFontService, Calibri, Helvetica, sans-serif;&quot;&gt;&lt;div style=&quot;font-size: 12pt; font-family: Aptos, Aptos_EmbeddedFont, Aptos_MSFontService, Calibri, Helvetica, sans-serif, serif, EmojiFont;&quot;&gt;&lt;a data-linkindex=&quot;0&quot; title=&quot;&quot; id=&quot;LPlnk&quot; data-auth=&quot;VerificationFailed&quot; rel=&quot;noopener noreferrer&quot; target=&quot;_blank&quot; href=&quot;https://nam12.safelinks.protection.outlook.com/?url=https%3A%2F%2Fdavid-m-rosen.github.io%2Fpublication%2Flagrangianduality3d-iros%2F&amp;amp;data=05%7C02%7Cselvakumaran.k%40northeastern.edu%7C8b3324a4dcb84bf4007108dc5800ed8f%7Ca8eec281aaa34daeac9b9a398b9215e7%7C0%7C0%7C638482008208464834%7CUnknown%7CTWFpbGZsb3d8eyJWIjoiMC4wLjAwMDAiLCJQIjoiV2luMzIiLCJBTiI6Ik1haWwiLCJXVCI6Mn0%3D%7C0%7C%7C%7C&amp;amp;sdata=uy5QHqlsX3ec9kowpEjcKoK%2FUZZnIfYUPaPF8kh%2Fgvc%3D&amp;amp;reserved=0&quot;&gt;Lagrangian Duality in 3D SLAM: Verification &lt;br&gt;Techniques and Optimal Solutions&lt;/a&gt;&lt;/div&gt;&lt;/li&gt;&lt;li style=&quot;font-size: 12pt; font-family: Aptos, Aptos_EmbeddedFont, Aptos_MSFontService, Calibri, Helvetica, sans-serif;&quot;&gt;&lt;div style=&quot;font-size: 12pt; font-family: Aptos, Aptos_EmbeddedFont, Aptos_MSFontService, Calibri, Helvetica, sans-serif, serif, EmojiFont;&quot;&gt;&lt;a data-linkindex=&quot;1&quot; title=&quot;&quot; id=&quot;LPlnk&quot; data-auth=&quot;VerificationFailed&quot; rel=&quot;noopener noreferrer&quot; target=&quot;_blank&quot; href=&quot;https://nam12.safelinks.protection.outlook.com/?url=https%3A%2F%2Fdavid-m-rosen.github.io%2Fpublication%2Fsesync-ijrr%2F&amp;amp;data=05%7C02%7Cselvakumaran.k%40northeastern.edu%7C8b3324a4dcb84bf4007108dc5800ed8f%7Ca8eec281aaa34daeac9b9a398b9215e7%7C0%7C0%7C638482008208472766%7CUnknown%7CTWFpbGZsb3d8eyJWIjoiMC4wLjAwMDAiLCJQIjoiV2luMzIiLCJBTiI6Ik1haWwiLCJXVCI6Mn0%3D%7C0%7C%7C%7C&amp;amp;sdata=ZS7UnnjB3%2ByzpS%2FoSQmw0pBWjrons9i7lgkX2dU0yb0%3D&amp;amp;reserved=0&quot;&gt;SE-Sync: A Certifiably Correct Algorithm &lt;br&gt;for Synchronization over the Special Euclidean Group&lt;/a&gt;&lt;/div&gt;&lt;/li&gt;&lt;li style=&quot;&quot;&gt;&lt;div style=&quot;&quot;&gt;&lt;font face=&quot;Aptos, Aptos_EmbeddedFont, Aptos_MSFontService, Calibri, Helvetica, sans-serif, serif, EmojiFont&quot; color=&quot;#0000ee&quot;&gt;&lt;span style=&quot;font-size: 16px;&quot;&gt;&lt;u&gt;Scalable Low-Rank Semidefinite Programming&lt;br&gt;&amp;nbsp;for Certifiably Correct Machine Perception&lt;/u&gt;&lt;/span&gt;&lt;/font&gt;&lt;br&gt;&lt;/div&gt;&lt;/li&gt;&lt;li style=&quot;&quot;&gt;&lt;div style=&quot;&quot;&gt;&lt;font face=&quot;Aptos, Aptos_EmbeddedFont, Aptos_MSFontService, Calibri, Helvetica, sans-serif, serif, EmojiFont&quot; color=&quot;#0000ee&quot;&gt;&lt;span style=&quot;font-size: 16px;&quot;&gt;&lt;u&gt;Accelerating Certifiable Estimation &lt;br&gt;with Preconditioned Eigensolvers&lt;/u&gt;&lt;/span&gt;&lt;/font&gt;&lt;br&gt;&lt;/div&gt;&lt;/li&gt;&lt;/ul&gt;&lt;div style=&quot;font-size: 16px; font-family: Aptos, Aptos_EmbeddedFont, Aptos_MSFontService, Calibri, Helvetica, sans-serif, serif, EmojiFont;&quot;&gt;&lt;br&gt;&lt;/div&gt;&lt;div style=&quot;font-size: 16px; font-family: Aptos, Aptos_EmbeddedFont, Aptos_MSFontService, Calibri, Helvetica, sans-serif, serif, EmojiFont;&quot;&gt;Applications involving spectral graph theory:&lt;/div&gt;&lt;ul style=&quot;list-style-position: initial; list-style-image: initial; margin-top: 0px; margin-bottom: 0px;&quot; data-editing-info=&quot;{&amp;quot;orderedStyleType&amp;quot;:1,&amp;quot;unorderedStyleType&amp;quot;:1}&quot;&gt;&lt;li style=&quot;&quot;&gt;&lt;div style=&quot;&quot;&gt;&lt;span style=&quot;background-color: initial; font-size: 16px;&quot;&gt;&lt;font face=&quot;Aptos, Aptos_EmbeddedFont, Aptos_MSFontService, Calibri, Helvetica, sans-serif, serif, EmojiFont&quot; color=&quot;#0000ee&quot;&gt;&lt;u&gt;OASIS: Optimal Arrangements for Sensing in SLAM&lt;/u&gt;&lt;/font&gt;&lt;/span&gt;&lt;/div&gt;&lt;/li&gt;&lt;li style=&quot;&quot;&gt;&lt;div style=&quot;&quot;&gt;&lt;a style=&quot;font-family: Aptos, Aptos_EmbeddedFont, Aptos_MSFontService, Calibri, Helvetica, sans-serif, serif, EmojiFont; font-size: 12pt; background-color: initial;&quot; data-linkindex=&quot;5&quot; title=&quot;&quot; id=&quot;LPlnk&quot; data-auth=&quot;VerificationFailed&quot; rel=&quot;noopener noreferrer&quot; target=&quot;_blank&quot; href=&quot;https://nam12.safelinks.protection.outlook.com/?url=https%3A%2F%2Fdavid-m-rosen.github.io%2Fpublication%2Fspectralsparsification-iros%2F&amp;amp;data=05%7C02%7Cselvakumaran.k%40northeastern.edu%7C8b3324a4dcb84bf4007108dc5800ed8f%7Ca8eec281aaa34daeac9b9a398b9215e7%7C0%7C0%7C638482008208502972%7CUnknown%7CTWFpbGZsb3d8eyJWIjoiMC4wLjAwMDAiLCJQIjoiV2luMzIiLCJBTiI6Ik1haWwiLCJXVCI6Mn0%3D%7C0%7C%7C%7C&amp;amp;sdata=jr1mQBVEer6PyIq7iK%2B9MY8vyC2MyMKXiI8hKL5vNnU%3D&amp;amp;reserved=0&quot;&gt;Spectral Measurement Sparsification for Pose-Graph SLAM&lt;/a&gt;&lt;br&gt;&lt;/div&gt;&lt;/li&gt;&lt;/ul&gt;" style="rounded=0;whiteSpace=wrap;html=1;align=left;" vertex="1" parent="WCqFs-Lxz6n811bPiyBm-308">
          <mxGeometry x="10" y="40" width="390" height="282" as="geometry" />
        </mxCell>
        <mxCell id="WCqFs-Lxz6n811bPiyBm-307" style="edgeStyle=orthogonalEdgeStyle;rounded=0;orthogonalLoop=1;jettySize=auto;html=1;exitX=0.5;exitY=1;exitDx=0;exitDy=0;" edge="1" parent="WCqFs-Lxz6n811bPiyBm-308" source="WCqFs-Lxz6n811bPiyBm-305" target="WCqFs-Lxz6n811bPiyBm-305">
          <mxGeometry relative="1" as="geometry" />
        </mxCell>
        <mxCell id="WCqFs-Lxz6n811bPiyBm-310" value="&lt;font color=&quot;#f7f7f7&quot;&gt;&lt;b&gt;LEARNING ROS&lt;/b&gt;&lt;/font&gt;" style="whiteSpace=wrap;html=1;fillColor=#f8cecc;strokeColor=#b85450;" vertex="1" parent="WIyWlLk6GJQsqaUBKTNV-1">
          <mxGeometry x="1845" y="830" width="130" height="30" as="geometry" />
        </mxCell>
        <mxCell id="WCqFs-Lxz6n811bPiyBm-312" value="&lt;b&gt;Optimizing C++&lt;/b&gt;&lt;div&gt;&lt;b&gt;x&lt;/b&gt;&lt;/div&gt;&lt;div&gt;&lt;b&gt;Learning CUDA&lt;/b&gt;&lt;/div&gt;" style="rounded=0;whiteSpace=wrap;html=1;fillColor=#d5e8d4;strokeColor=#82b366;" vertex="1" parent="WIyWlLk6GJQsqaUBKTNV-1">
          <mxGeometry x="1720" y="547" width="120" height="60" as="geometry" />
        </mxCell>
        <mxCell id="WCqFs-Lxz6n811bPiyBm-313" value="&lt;b&gt;Optimizing C++&lt;/b&gt;&lt;div&gt;&lt;b&gt;x&lt;/b&gt;&lt;/div&gt;&lt;div&gt;&lt;b&gt;Learning CUDA&lt;/b&gt;&lt;/div&gt;" style="rounded=0;whiteSpace=wrap;html=1;fillColor=#d5e8d4;strokeColor=#82b366;" vertex="1" parent="WIyWlLk6GJQsqaUBKTNV-1">
          <mxGeometry x="1690" y="820" width="120" height="60" as="geometry" />
        </mxCell>
        <mxCell id="WCqFs-Lxz6n811bPiyBm-314" value="&lt;b&gt;Optimizing C++&lt;/b&gt;&lt;div&gt;&lt;b&gt;x&lt;/b&gt;&lt;/div&gt;&lt;div&gt;&lt;b&gt;Learning CUDA&lt;/b&gt;&lt;/div&gt;" style="rounded=0;whiteSpace=wrap;html=1;fillColor=#d5e8d4;strokeColor=#82b366;" vertex="1" parent="WIyWlLk6GJQsqaUBKTNV-1">
          <mxGeometry x="2140" y="725" width="120" height="60" as="geometry" />
        </mxCell>
      </root>
    </mxGraphModel>
  </diagram>
</mxfile>
